# xmcd
#
# Track frame offsets:
#	150
#	18823
#	36520
#	52641
#	68781
#	83270
#	98360
#	117652
#	132874
#	147635
#
# Disc length: 2263 seconds
#
# Revision: 1
# Processed by: cddbd v1.5.2PL0 Copyright (c) Steve Scherf et al.
# Submitted via: audiograbber 1.83.01
#
DISCID=7908d50a
DTITLE=Giorgio - Giorgio's Music
DYEAR=1973
DGENRE=Schlager
TTITLE0=Marrakesch
TTITLE1=Viel Glück, Christina [Good Grief Christina]
TTITLE2=Her Mit Dem Geld
TTITLE3=Viele Phrasen [Crippled Words]
TTITLE4=Zigaretten Und Mädchen Und Wein [Cigarettes, Women And Wine]
TTITLE5=Hilf Dir Selbst [Heaven Helps The Man (Who Helps Himself)]
TTITLE6=Ich Komm Nach Haus
TTITLE7=Nostalgie
TTITLE8=Ja, Ja, Ja (Wie Ist Werbung Wunderbar)
TTITLE9=Eine Alte Melodie [Lonely Lovers Symphony]
EXTD=
EXTT0=
EXTT1=
EXTT2=
EXTT3=
EXTT4=
EXTT5=
EXTT6=
EXTT7=
EXTT8=
EXTT9=
PLAYORDER=
